<svg xmlns="http://www.w3.org/2000/svg" viewBox="0 0 32 32" width="32" height="32">
    <!-- Elegant gradient background -->
    <defs>
        <radialGradient id="bg" cx="0.5" cy="0.3">
            <stop offset="0%" stop-color="#1e3a8a"/>
            <stop offset="100%" stop-color="#0f172a"/>
        </radialGradient>
        <linearGradient id="castle" x1="0" y1="0" x2="0" y2="1">
            <stop offset="0%" stop-color="#f3f4f6"/>
            <stop offset="70%" stop-color="#d1d5db"/>
            <stop offset="100%" stop-color="#9ca3af"/>
        </linearGradient>
        <linearGradient id="shadow" x1="0" y1="0" x2="1" y2="1">
            <stop offset="0%" stop-color="#374151" stop-opacity="0.3"/>
            <stop offset="100%" stop-color="#1f2937" stop-opacity="0.6"/>
        </linearGradient>
    </defs>

    <!-- Background -->
    <circle cx="16" cy="16" r="16" fill="url(#bg)"/>

    <!-- Castle shadows for depth -->
    <rect x="7.2" y="12.2" width="3.5" height="11" fill="url(#shadow)" rx="0.2"/>
    <rect x="13.2" y="9.2" width="5.5" height="14" fill="url(#shadow)" rx="0.2"/>
    <rect x="21.2" y="12.2" width="3.5" height="11" fill="url(#shadow)" rx="0.2"/>

    <!-- Main castle structure -->
    <!-- Left tower -->
    <rect x="7" y="12" width="3.5" height="11" fill="url(#castle)" rx="0.2"/>
    <!-- Center keep (main tower) -->
    <rect x="13" y="9" width="5.5" height="14" fill="url(#castle)" rx="0.2"/>
    <!-- Right tower -->
    <rect x="21" y="12" width="3.5" height="11" fill="url(#castle)" rx="0.2"/>

    <!-- Refined crenellations -->
    <rect x="7" y="11.5" width="0.6" height="1" fill="url(#castle)"/>
    <rect x="8.2" y="11.5" width="0.6" height="1" fill="url(#castle)"/>
    <rect x="9.4" y="11.5" width="0.6" height="1" fill="url(#castle)"/>

    <rect x="13" y="8.5" width="0.8" height="1" fill="url(#castle)"/>
    <rect x="14.5" y="8.5" width="0.8" height="1" fill="url(#castle)"/>
    <rect x="16" y="8.5" width="0.8" height="1" fill="url(#castle)"/>
    <rect x="17.5" y="8.5" width="0.8" height="1" fill="url(#castle)"/>

    <rect x="21" y="11.5" width="0.6" height="1" fill="url(#castle)"/>
    <rect x="22.2" y="11.5" width="0.6" height="1" fill="url(#castle)"/>
    <rect x="23.4" y="11.5" width="0.6" height="1" fill="url(#castle)"/>

    <!-- Elegant arched entrance -->
    <path d="M 14.5 19 Q 14.5 17 16 17 Q 17.5 17 17.5 19 L 17.5 23 L 14.5 23 Z" fill="#1f2937"/>

    <!-- Sophisticated windows -->
    <rect x="8" y="14.5" width="1" height="2" fill="#1e3a8a" rx="0.5"/>
    <rect x="8" y="17.5" width="1" height="1.5" fill="#1e3a8a" rx="0.5"/>

    <rect x="22.5" y="14.5" width="1" height="2" fill="#1e3a8a" rx="0.5"/>
    <rect x="22.5" y="17.5" width="1" height="1.5" fill="#1e3a8a" rx="0.5"/>

    <!-- Central tower window -->
    <rect x="15.2" y="12" width="1.6" height="2.5" fill="#1e3a8a" rx="0.8"/>
    <line x1="16" y1="12" x2="16" y2="14.5" stroke="#9ca3af" stroke-width="0.1"/>
    <line x1="15.2" y1="13.2" x2="16.8" y2="13.2" stroke="#9ca3af" stroke-width="0.1"/>

    <!-- Subtle architectural details -->
    <line x1="7" y1="21" x2="10.5" y2="21" stroke="#9ca3af" stroke-width="0.1" opacity="0.7"/>
    <line x1="13" y1="20" x2="18.5" y2="20" stroke="#9ca3af" stroke-width="0.1" opacity="0.7"/>
    <line x1="21" y1="21" x2="24.5" y2="21" stroke="#9ca3af" stroke-width="0.1" opacity="0.7"/>

    <!-- Minimalist flag on main tower -->
    <line x1="16" y1="8.5" x2="16" y2="5.5" stroke="#6b7280" stroke-width="0.2"/>
    <path d="M 16 5.5 L 16 7 L 17.8 6.5 L 16 6 Z" fill="#dc2626" opacity="0.9"/>
</svg>