<?xml version="1.0" encoding="UTF-8"?>
<svg id="Layer_2" data-name="Layer 2" xmlns="http://www.w3.org/2000/svg" xmlns:xlink="http://www.w3.org/1999/xlink" viewBox="0 0 200 180.32">
  <defs>
    <style>
      .cls-1 {
        fill: none;
      }

      .cls-2 {
        fill: #fff;
      }

      .cls-3 {
        clip-path: url(#clippath);
      }
    </style>
    <clipPath id="clippath">
      <rect class="cls-1" x="12.59" y="14.38" width="173.91" height="152.81"/>
    </clipPath>
  </defs>
  <g class="cls-3">
    <g>
      <g>
        <path class="cls-2" d="M11.75,89.1h12.66v-15.2h-12.66v15.2ZM15.97,75.59h5.91v10.13h-5.91v-10.13Z"/>
        <rect class="cls-2" x="26.1" y="73.9" width="10.13" height="15.2"/>
        <path class="cls-2" d="M37.92,89.1h11.82v-15.2h-11.82v15.2ZM42.98,76.43h3.38v9.29h-3.38v-9.29Z"/>
        <path class="cls-2" d="M11.75,107.67h12.66v-16.88h-12.66v16.88ZM15.97,93.32h5.91v11.82h-5.91v-11.82Z"/>
        <rect class="cls-2" x="26.1" y="90.78" width="10.13" height="16.88"/>
        <path class="cls-2" d="M37.92,107.67h11.82v-16.88h-11.82v16.88ZM42.98,93.32h3.38v10.13h-3.38v-10.13Z"/>
        <rect class="cls-2" x="11.75" y="109.36" width="12.66" height="21.11"/>
        <rect class="cls-2" x="26.1" y="109.36" width="10.13" height="21.11"/>
        <path class="cls-2" d="M37.92,130.46h11.82v-21.11h-11.82v21.11ZM43.83,114.42h2.53v8.44h-2.53v-8.44Z"/>
        <path class="cls-2" d="M27.37,57.86h-1.69l-.84-3.38h-2.53l-.84,3.38h-1.71l.02-2.53h-1.69v16.88h10.98v-16.88h-1.69v2.53ZM26.53,69.68h-5.91v-9.29h5.91v9.29Z"/>
        <polygon class="cls-2" points="77.6 75.59 77.6 67.15 75.9 67.15 74.22 65.46 72.53 65.46 70.83 67.15 69.15 67.15 69.15 75.59 71.69 75.59 71.69 68.83 75.06 68.83 75.06 75.59 77.6 75.59"/>
        <path class="cls-2" d="M103.77,75.59v-8.44h-1.7l-1.68-1.69h-2.43l-1.68,1.69h-1.7v8.44h9.19ZM101.24,73.9h-4.22v-5.07h4.22v5.07Z"/>
        <polygon class="cls-2" points="47.2 40.13 47.2 39 47.2 36.75 45.01 36.75 45.01 39 41.72 39 41.72 36.75 39.52 36.75 36.23 36.75 36.23 40.13 39.52 40.13 47.2 40.13"/>
        <rect class="cls-2" x="78.44" y="55.33" width="5.91" height="5.91"/>
        <path class="cls-2" d="M173.94,89.1h12.66v-15.2h-12.66v15.2ZM176.37,75.59h5.91v10.13h-5.91v-10.13Z"/>
        <rect class="cls-2" x="162.13" y="73.9" width="10.13" height="15.2"/>
        <path class="cls-2" d="M148.61,89.1h11.82v-15.2h-11.82v15.2ZM151.89,76.43h3.38v9.29h-3.38v-9.29Z"/>
        <path class="cls-2" d="M186.61,90.78h-12.66v16.88h12.66v-16.88ZM182.28,105.14h-5.91v-11.82h5.91v11.82Z"/>
        <rect class="cls-2" x="162.13" y="90.78" width="10.13" height="16.88"/>
        <path class="cls-2" d="M148.61,107.67h11.82v-16.88h-11.82v16.88ZM151.89,93.32h3.38v10.13h-3.38v-10.13Z"/>
        <rect class="cls-2" x="173.95" y="109.36" width="12.66" height="21.11"/>
        <rect class="cls-2" x="162.13" y="109.36" width="10.13" height="21.11"/>
        <path class="cls-2" d="M148.61,130.46h11.82v-21.11h-11.82v21.11ZM151.89,114.42h2.53v8.44h-2.53v-8.44Z"/>
        <path class="cls-2" d="M98.8,77.28h-47.38v13.51h95.5v-13.51h-48.12ZM62.4,89.1h-5.91v-9.29h5.91v9.29ZM76.75,89.1h-6.75v-9.29h6.75v9.29ZM90.26,89.1h-5.91v-9.29h5.91v9.29ZM135.85,79.81h5.91v9.29h-5.91v-9.29ZM121.5,79.81h6.75v9.29h-6.75v-9.29ZM107.99,79.81h5.91v9.29h-5.91v-9.29ZM102.08,79.81v9.29h-5.91v-9.29h5.91Z"/>
        <path class="cls-2" d="M98.8,92.47h-47.38v16.88h95.5v-16.88h-48.12ZM62.4,106.83h-5.91v-11.82h5.91v11.82ZM76.75,106.83h-6.75v-11.82h6.75v11.82ZM90.26,107.67h-5.91v-12.66h5.91v12.66ZM135.85,95.01h5.91v11.82h-5.91v-11.82ZM121.5,95.01h6.75v11.82h-6.75v-11.82ZM107.99,95.01h5.91v12.66h-5.91v-12.66ZM102.08,95.01v12.66h-5.91v-12.66h5.91Z"/>
        <path class="cls-2" d="M98.8,111.05h-47.38v16.88h14.35v-6.33c0-3.96,3.22-7.18,7.18-7.18s7.18,3.22,7.18,7.18v6.33h10.98v-6.33c0-3.96,4.03-7.22,8.02-7.22s8.02,3.26,8.02,7.22v6.33h10.98v-6.33c0-3.96,3.22-7.18,7.18-7.18s7.18,3.22,7.18,7.18v6.33h14.45v-16.88h-48.12Z"/>
        <path class="cls-2" d="M176.08,54.48h-2.53l-.83,3.38h-1.7v-2.53h-1.7v16.88h10.98v-16.88h-1.69l.02,2.53h-1.71l-.84-3.38ZM177.67,69.68h-5.91v-9.29h5.91v9.29Z"/>
        <polygon class="cls-2" points="129.2 75.59 129.2 67.15 127.52 67.15 125.82 65.46 124.13 65.46 122.45 67.15 120.75 67.15 120.75 75.59 123.19 75.59 123.19 68.83 126.56 68.83 126.56 75.59 129.2 75.59"/>
        <path class="cls-2" d="M170.94,37.6h7.57l7.36,13.32,1.48-.81-7.5-13.58v-14.13c0-2.51-1.82-4.59-4.22-4.99v-3.45h-1.69v3.45s0,0,0,0c-2.39.4-4.22,2.48-4.22,4.99v13.97l-9.28,14.5v-9.05h-3.38v14.32h0s-1.68,2.64-1.68,2.64v-16.96h-3.38v22.23h0s-4.13,6.46-4.13,6.46l-4.63-9.27-33.45.02v-12.68h-1.68v-4.22h-.84v4.22h-1.69v-4.22h-1.69v4.22h0v-.84h-1.68v-10.98h.84v-1.69h-.84v-.84h-.84v-.84h-.84v-.84h-.84v-2.53h-.95v2.53h-.84v.84h-.84v.84h-.84v.84h-.84v1.69h.84v10.98h-1.69v-3.38h-1.69v4.22h-1.69v-4.22h-.84v4.22h-1.69v12.69l-33.45-.02-4.63,9.27-4.13-6.45v-22.23h-3.38v16.96l-1.69-2.64v-14.32h-3.38v9.05l-9.29-14.5v-13.96c0-2.51-1.82-4.59-4.22-4.99v-3.45h-1.69v3.45c-2.4.4-4.22,2.48-4.22,4.99v14.13l-7.49,13.57,1.48.82,7.36-13.33h7.57l10.5,16.4v4.41c0,.17.05.35.15.49l2.7,3.17c.16.24.53.13.53-.16v-2.64l1.69,2.64v3.21c0,.22.09.42.24.58l3.14,3.14v-1.65l4.06,6.35c.11.17.36.16.46-.02l5.29-10.58,42.96.03v-.03h.11v.03l42.95-.03,5.33,10.66c.07.15.28.16.37.02l4.11-6.42h0s0,1.78,0,1.78l3.26-3.39c.07-.07.11-.17.11-.27v-3.39l1.68-2.63h0s0,3.24,0,3.24c0,.1.14.15.19.06l3.18-3.9v-4.68l10.5-16.4ZM178.16,35.91h-2.53v-10.13h2.53v10.13ZM171.41,22.4c0-1.87,1.52-3.38,3.38-3.38s3.38,1.51,3.38,3.38v1.69h-6.75v-1.69ZM173.94,25.78v10.13h-2.53v-10.13h2.53ZM20.19,22.4c0-1.87,1.51-3.38,3.38-3.38s3.38,1.51,3.38,3.38v1.69h-6.75v-1.69ZM20.19,35.91v-10.13h2.53v10.13h-2.53ZM24.41,35.91v-10.13h2.53v10.13h-2.53ZM100.39,61.24v-11.82h1.79v11.84h-1.69v-.03h-.1ZM98.7,37.6h.84v10.13h-.84v-10.13ZM107.15,51.11v8.44h-2.53v-8.44h2.53ZM93.64,51.11v8.44h-2.53v-8.44h2.53ZM96.17,49.42h1.69v11.85h-1.69v-11.85Z"/>
        <polygon class="cls-2" points="162.13 40.13 162.13 36.75 158.83 36.75 156.64 36.75 156.64 39 153.35 39 153.35 36.75 151.15 36.75 151.15 39 151.15 40.13 158.83 40.13 162.13 40.13"/>
        <rect class="cls-2" x="114" y="55.33" width="5.91" height="5.91"/>
      </g>
      <path class="cls-2" d="M191.32,153.3c0,2.17-1.76,3.93-3.93,3.93h-110.99c-1.08,0-2.06-.45-2.78-1.15s-1.15-1.7-1.15-2.78c0-2.18,1.77-3.06,3.93-3.06h110.99c1.08,0,2.07.22,2.78.72.72.49,1.15,1.25,1.15,2.34Z"/>
      <path class="cls-2" d="M191.32,141.07c0,2.17-1.76,3.93-3.93,3.93h-85.65c-1.08,0-2.06-.45-2.78-1.15-.54-.54-.91-1.24-1.06-2.03-.02-.07-.03-.15-.04-.23-.02-.08-.03-.17-.03-.24-.02-.09-.02-.18-.02-.28,0-2.18,1.77-3.93,3.93-3.93h85.65c.67,0,1.31.17,1.86.47.34.17.65.41.92.68.72.71,1.15,1.69,1.15,2.78Z"/>
      <path class="cls-2" d="M74.98,135.16l-62.39,21.57-2.16.74c-5.77,1.89-8.47-6.55-2.63-8.34l4.79-1.24,61.38-15.93c.91-.26,1.85.28,2.09,1.19.23.86-.26,1.73-1.07,2.01Z"/>
      <path class="cls-2" d="M189.69,136.48c-.03.43-.19.81-.44,1.13-.5.65-1.34,1-2.18.81,0,0-.51-.12-1.41-.31-1.08-.23-2.74-.57-4.77-.98-10.87-2.21-32.27-6.52-32.27-6.71l23.63.04,13.41,3.15,2.05.48c1.21.11,2.09,1.18,1.98,2.38Z"/>
      <path class="cls-2" d="M49.74,130.47l-36.8,12.69c-.12.03-.24.06-.35.09-3.92.81-5.34-5.1-1.18-6.01l1.18-.28,26.93-6.48,4.98-1.2,5.23,1.2Z"/>
      <polygon class="cls-2" points="49.74 130.47 12.59 137.02 11.41 137.23 12.59 136.93 37.92 130.47 49.74 130.47"/>
    </g>
  </g>
  <path class="cls-2" d="M186.5,14.38v152.81H12.59V14.38h173.91ZM195.24,5.64H3.85v170.29h191.39V5.64h0Z"/>
</svg>