<?xml version="1.0" encoding="UTF-8"?>
<svg id="Layer_2" data-name="Layer 2" xmlns="http://www.w3.org/2000/svg" xmlns:xlink="http://www.w3.org/1999/xlink" viewBox="0 0 965.8 512.45">
  <defs>
    <style>
      .cls-1 {
        fill: none;
      }

      .cls-2 {
        fill: #111727;
      }

      .cls-3 {
        clip-path: url(#clippath);
      }
    </style>
    <clipPath id="clippath">
      <rect class="cls-1" x="127.69" y="105.78" width="199" height="174.85"/>
    </clipPath>
  </defs>
  <g>
    <path class="cls-2" d="M392.27,145.06l-14.47-40.13h8.87l10.68,30.46,10.68-30.46h8.87l-14.52,40.13h-10.12Z"/>
    <path class="cls-2" d="M420.64,145.06v-40.13h8.59v40.13h-8.59Z"/>
    <path class="cls-2" d="M452.57,145.97c-3.47,0-6.44-.58-8.93-1.75-2.49-1.17-4.43-2.81-5.82-4.92-1.39-2.11-2.19-4.6-2.37-7.46l8.65-.4c.23,1.58.69,2.93,1.38,4.04.7,1.11,1.64,1.95,2.83,2.51s2.65.85,4.38.85c1.43,0,2.65-.17,3.65-.51,1-.34,1.76-.86,2.29-1.55.53-.7.79-1.55.79-2.57,0-.94-.23-1.76-.68-2.46-.45-.7-1.32-1.34-2.6-1.92-1.28-.58-3.16-1.16-5.65-1.72-3.43-.79-6.19-1.68-8.28-2.66-2.09-.98-3.61-2.21-4.55-3.7-.94-1.49-1.41-3.36-1.41-5.62,0-2.41.59-4.52,1.78-6.33s2.91-3.22,5.17-4.24,4.95-1.53,8.08-1.53c3.31,0,6.12.58,8.42,1.75,2.3,1.17,4.1,2.77,5.4,4.8,1.3,2.03,2.08,4.37,2.35,7.01l-8.59.45c-.11-1.39-.49-2.61-1.13-3.65-.64-1.04-1.51-1.84-2.6-2.4-1.09-.57-2.41-.85-3.96-.85-1.96,0-3.49.43-4.61,1.3-1.11.87-1.67,2-1.67,3.39,0,.98.25,1.8.76,2.46.51.66,1.36,1.23,2.54,1.72,1.19.49,2.87.96,5.06,1.41,3.73.75,6.68,1.71,8.84,2.85,2.17,1.15,3.7,2.51,4.61,4.1s1.36,3.39,1.36,5.43c0,2.49-.63,4.64-1.89,6.47-1.26,1.83-3.05,3.23-5.37,4.21s-5.06,1.47-8.22,1.47Z"/>
    <path class="cls-2" d="M474.28,145.06v-40.13h8.59v40.13h-8.59Z"/>
    <path class="cls-2" d="M498.07,145.06v-32.89h-11.98v-7.23h32.66v7.23h-12.04v32.89h-8.65Z"/>
    <polygon class="cls-2" points="407.98 205.64 407.98 212.88 380.91 212.88 380.91 172.75 389.5 172.75 389.5 205.64 407.98 205.64"/>
    <path class="cls-2" d="M429.46,213.79c-4.07,0-7.56-.85-10.48-2.54-2.92-1.7-5.16-4.11-6.73-7.23-1.56-3.13-2.35-6.84-2.35-11.13s.78-8.02,2.35-11.16c1.56-3.15,3.8-5.58,6.73-7.29,2.92-1.71,6.41-2.57,10.48-2.57s7.61.86,10.51,2.57c2.9,1.71,5.13,4.15,6.7,7.29,1.56,3.15,2.35,6.87,2.35,11.16s-.78,8.01-2.35,11.13c-1.56,3.13-3.81,5.54-6.73,7.23-2.92,1.7-6.41,2.54-10.48,2.54ZM429.4,206.55c2.26,0,4.19-.54,5.79-1.61,1.6-1.07,2.83-2.63,3.67-4.66.85-2.03,1.27-4.5,1.27-7.4s-.42-5.38-1.27-7.43c-.85-2.05-2.07-3.63-3.67-4.72-1.6-1.09-3.53-1.64-5.79-1.64s-4.13.55-5.71,1.64c-1.58,1.09-2.8,2.67-3.65,4.72-.85,2.05-1.27,4.53-1.27,7.43s.42,5.37,1.27,7.4c.85,2.03,2.07,3.59,3.67,4.66,1.6,1.07,3.49,1.61,5.68,1.61Z"/>
    <path class="cls-2" d="M454.66,212.88v-40.13h8.59v40.13h-8.59Z"/>
    <path class="cls-2" d="M470.83,212.88v-40.13h17.58c2.94,0,5.49.49,7.66,1.47,2.17.98,3.83,2.36,5,4.15,1.17,1.79,1.75,3.91,1.75,6.36,0,1.85-.39,3.49-1.16,4.92-.77,1.43-1.83,2.6-3.17,3.5-1.34.9-2.87,1.47-4.61,1.7l-.17-.51c2.67,0,4.71.57,6.1,1.72,1.39,1.15,2.18,2.91,2.37,5.28l1.02,11.53h-8.76l-.73-10.17c-.11-1.54-.59-2.68-1.44-3.42-.85-.73-2.29-1.1-4.32-1.1h-8.53v14.69h-8.59ZM479.42,191.01h8.03c2.07,0,3.68-.48,4.83-1.44,1.15-.96,1.72-2.33,1.72-4.1s-.58-3.17-1.75-4.1c-1.17-.92-2.86-1.38-5.09-1.38h-7.74v11.02Z"/>
    <path class="cls-2" d="M510.22,212.88v-40.13h27.92v7.23h-19.33v9.21h18.65v7.12h-18.65v9.32h19.78v7.23h-28.37Z"/>
    <path class="cls-2" d="M397.92,281.6c-3.65,0-6.9-.83-9.75-2.49-2.85-1.66-5.07-4.05-6.67-7.18-1.6-3.13-2.4-6.87-2.4-11.25s.77-7.96,2.32-11.11c1.54-3.15,3.75-5.59,6.61-7.32,2.86-1.73,6.22-2.6,10.06-2.6,5.24,0,9.32,1.29,12.24,3.87,2.92,2.58,4.79,6.26,5.62,11.05l-8.93.34c-.45-2.52-1.43-4.49-2.94-5.91-1.51-1.41-3.5-2.12-5.99-2.12-2.15,0-3.98.57-5.48,1.7-1.51,1.13-2.66,2.73-3.45,4.8-.79,2.07-1.19,4.5-1.19,7.29s.4,5.27,1.22,7.32c.81,2.05,1.97,3.63,3.48,4.72,1.51,1.09,3.3,1.64,5.37,1.64,2.71,0,4.81-.76,6.3-2.29,1.49-1.53,2.42-3.65,2.8-6.36l8.99.34c-.53,3.28-1.56,6.07-3.11,8.36-1.55,2.3-3.57,4.07-6.08,5.31-2.51,1.24-5.51,1.86-9.01,1.86Z"/>
    <path class="cls-2" d="M417.65,280.7l14.47-40.13h10.17l14.47,40.13h-8.93l-2.94-8.53h-15.43l-2.94,8.53h-8.87ZM431.89,265.1h10.63l-5.31-15.48-5.31,15.48Z"/>
    <path class="cls-2" d="M475.52,281.6c-3.47,0-6.44-.58-8.93-1.75-2.49-1.17-4.43-2.81-5.82-4.92-1.39-2.11-2.19-4.6-2.37-7.46l8.65-.4c.23,1.58.69,2.93,1.38,4.04.7,1.11,1.64,1.95,2.83,2.51s2.65.85,4.38.85c1.43,0,2.65-.17,3.65-.51,1-.34,1.76-.86,2.29-1.55.53-.7.79-1.55.79-2.57,0-.94-.23-1.76-.68-2.46-.45-.7-1.32-1.34-2.6-1.92-1.28-.58-3.16-1.16-5.65-1.72-3.43-.79-6.19-1.68-8.28-2.66s-3.61-2.21-4.55-3.7c-.94-1.49-1.41-3.36-1.41-5.62,0-2.41.59-4.52,1.78-6.33s2.91-3.22,5.17-4.24,4.95-1.53,8.08-1.53c3.31,0,6.12.58,8.42,1.75,2.3,1.17,4.1,2.77,5.4,4.8,1.3,2.03,2.08,4.37,2.35,7.01l-8.59.45c-.11-1.39-.49-2.61-1.13-3.65-.64-1.04-1.51-1.84-2.6-2.4-1.09-.57-2.41-.85-3.96-.85-1.96,0-3.49.43-4.61,1.3-1.11.87-1.67,2-1.67,3.39,0,.98.25,1.8.76,2.46.51.66,1.36,1.23,2.54,1.72,1.19.49,2.87.96,5.06,1.41,3.73.75,6.68,1.71,8.84,2.85,2.17,1.15,3.7,2.51,4.61,4.1.9,1.58,1.36,3.39,1.36,5.42,0,2.49-.63,4.64-1.89,6.47-1.26,1.83-3.05,3.23-5.37,4.21s-5.06,1.47-8.22,1.47Z"/>
    <path class="cls-2" d="M504.28,280.7v-32.89h-11.98v-7.23h32.67v7.23h-12.04v32.89h-8.65Z"/>
    <polygon class="cls-2" points="555.2 273.46 555.2 280.7 528.13 280.7 528.13 240.57 536.72 240.57 536.72 273.46 555.2 273.46"/>
    <path class="cls-2" d="M559.61,280.7v-40.13h27.92v7.23h-19.33v9.21h18.65v7.12h-18.65v9.33h19.78v7.23h-28.37Z"/>
    <path class="cls-2" d="M610.64,281.6c-3.47,0-6.44-.58-8.93-1.75s-4.43-2.81-5.82-4.92c-1.39-2.11-2.19-4.6-2.37-7.46l8.65-.4c.23,1.58.69,2.93,1.38,4.04.7,1.11,1.64,1.95,2.83,2.51,1.19.57,2.65.85,4.38.85,1.43,0,2.65-.17,3.64-.51,1-.34,1.76-.86,2.29-1.55.53-.7.79-1.55.79-2.57,0-.94-.23-1.76-.68-2.46-.45-.7-1.32-1.34-2.6-1.92-1.28-.58-3.16-1.16-5.65-1.72-3.43-.79-6.19-1.68-8.28-2.66s-3.61-2.21-4.55-3.7c-.94-1.49-1.41-3.36-1.41-5.62,0-2.41.59-4.52,1.78-6.33,1.19-1.81,2.91-3.22,5.17-4.24,2.26-1.02,4.95-1.53,8.08-1.53,3.31,0,6.12.58,8.42,1.75,2.3,1.17,4.1,2.77,5.4,4.8s2.08,4.37,2.35,7.01l-8.59.45c-.11-1.39-.49-2.61-1.13-3.65-.64-1.04-1.51-1.84-2.6-2.4-1.09-.57-2.41-.85-3.96-.85-1.96,0-3.5.43-4.61,1.3-1.11.87-1.67,2-1.67,3.39,0,.98.25,1.8.76,2.46.51.66,1.36,1.23,2.54,1.72,1.19.49,2.87.96,5.06,1.41,3.73.75,6.68,1.71,8.84,2.85,2.17,1.15,3.7,2.51,4.61,4.1.9,1.58,1.36,3.39,1.36,5.42,0,2.49-.63,4.64-1.89,6.47-1.26,1.83-3.05,3.23-5.37,4.21-2.32.98-5.06,1.47-8.22,1.47Z"/>
  </g>
  <g class="cls-3">
    <g>
      <g>
        <path class="cls-2" d="M126.73,191.27h14.49v-17.39h-14.49v17.39ZM131.56,175.81h6.76v11.59h-6.76v-11.59Z"/>
        <rect class="cls-2" x="143.15" y="173.88" width="11.59" height="17.39"/>
        <path class="cls-2" d="M156.67,191.27h13.52v-17.39h-13.52v17.39ZM162.47,176.78h3.86v10.63h-3.86v-10.63Z"/>
        <path class="cls-2" d="M126.73,212.52h14.49v-19.32h-14.49v19.32ZM131.56,196.1h6.76v13.52h-6.76v-13.52Z"/>
        <rect class="cls-2" x="143.15" y="193.2" width="11.59" height="19.32"/>
        <path class="cls-2" d="M156.67,212.52h13.52v-19.32h-13.52v19.32ZM162.47,196.1h3.86v11.59h-3.86v-11.59Z"/>
        <rect class="cls-2" x="126.73" y="214.45" width="14.49" height="24.15"/>
        <rect class="cls-2" x="143.15" y="214.45" width="11.59" height="24.15"/>
        <path class="cls-2" d="M156.67,238.6h13.52v-24.15h-13.52v24.15ZM163.44,220.25h2.9v9.66h-2.9v-9.66Z"/>
        <path class="cls-2" d="M144.6,155.53h-1.93l-.96-3.86h-2.9l-.97,3.86h-1.95l.02-2.9h-1.93v19.32h12.56v-19.32h-1.93v2.9ZM143.65,169.05h-6.76v-10.63h6.76v10.63Z"/>
        <polygon class="cls-2" points="202.08 175.81 202.08 166.15 200.14 166.15 198.21 164.22 196.28 164.22 194.34 166.15 192.42 166.15 192.42 175.81 195.32 175.81 195.32 168.08 199.18 168.08 199.18 175.81 202.08 175.81"/>
        <path class="cls-2" d="M232.02,175.81v-9.66h-1.94l-1.92-1.93h-2.78l-1.92,1.93h-1.94v9.66h10.51ZM229.13,173.88h-4.83v-5.8h4.83v5.8Z"/>
        <polygon class="cls-2" points="167.3 135.24 167.3 133.95 167.3 131.38 164.79 131.38 164.79 133.95 161.02 133.95 161.02 131.38 158.51 131.38 154.74 131.38 154.74 135.24 158.51 135.24 167.3 135.24"/>
        <rect class="cls-2" x="203.04" y="152.63" width="6.76" height="6.76"/>
        <path class="cls-2" d="M312.32,191.27h14.49v-17.39h-14.49v17.39ZM315.1,175.81h6.76v11.59h-6.76v-11.59Z"/>
        <rect class="cls-2" x="298.8" y="173.88" width="11.59" height="17.39"/>
        <path class="cls-2" d="M283.34,191.27h13.52v-17.39h-13.52v17.39ZM287.09,176.78h3.86v10.63h-3.86v-10.63Z"/>
        <path class="cls-2" d="M326.81,193.2h-14.49v19.32h14.49v-19.32ZM321.86,209.62h-6.76v-13.52h6.76v13.52Z"/>
        <rect class="cls-2" x="298.8" y="193.2" width="11.59" height="19.32"/>
        <path class="cls-2" d="M283.34,212.52h13.52v-19.32h-13.52v19.32ZM287.09,196.1h3.86v11.59h-3.86v-11.59Z"/>
        <rect class="cls-2" x="312.32" y="214.45" width="14.49" height="24.15"/>
        <rect class="cls-2" x="298.8" y="214.45" width="11.59" height="24.15"/>
        <path class="cls-2" d="M283.34,238.6h13.52v-24.15h-13.52v24.15ZM287.09,220.25h2.9v9.66h-2.9v-9.66Z"/>
        <path class="cls-2" d="M226.34,177.74h-54.21v15.46h109.28v-15.46h-55.06ZM184.69,191.27h-6.76v-10.63h6.76v10.63ZM201.11,191.27h-7.73v-10.63h7.73v10.63ZM216.57,191.27h-6.76v-10.63h6.76v10.63ZM268.73,180.64h6.76v10.63h-6.76v-10.63ZM252.31,180.64h7.73v10.63h-7.73v-10.63ZM236.85,180.64h6.76v10.63h-6.76v-10.63ZM230.09,180.64v10.63h-6.76v-10.63h6.76Z"/>
        <path class="cls-2" d="M226.34,195.13h-54.21v19.32h109.28v-19.32h-55.06ZM184.69,211.55h-6.76v-13.52h6.76v13.52ZM201.11,211.55h-7.73v-13.52h7.73v13.52ZM216.57,212.52h-6.76v-14.49h6.76v14.49ZM268.73,198.03h6.76v13.52h-6.76v-13.52ZM252.31,198.03h7.73v13.52h-7.73v-13.52ZM236.85,198.03h6.76v14.49h-6.76v-14.49ZM230.09,198.03v14.49h-6.76v-14.49h6.76Z"/>
        <path class="cls-2" d="M226.34,216.38h-54.21v19.32h16.42v-7.25c0-4.53,3.68-8.21,8.21-8.21s8.21,3.68,8.21,8.21v7.25h12.56v-7.25c0-4.53,4.61-8.26,9.18-8.26s9.18,3.73,9.18,8.26v7.25h12.56v-7.25c0-4.53,3.68-8.21,8.21-8.21s8.21,3.68,8.21,8.21v7.25h16.54v-19.32h-55.06Z"/>
        <path class="cls-2" d="M314.77,151.66h-2.9l-.95,3.86h-1.94v-2.9h-1.94v19.32h12.56v-19.32h-1.93l.02,2.9h-1.95l-.97-3.86ZM316.59,169.05h-6.76v-10.63h6.76v10.63Z"/>
        <polygon class="cls-2" points="261.12 175.81 261.12 166.15 259.2 166.15 257.26 164.22 255.32 164.22 253.4 166.15 251.46 166.15 251.46 175.81 254.24 175.81 254.24 168.08 258.11 168.08 258.11 175.81 261.12 175.81"/>
        <path class="cls-2" d="M308.88,132.34h8.67l8.42,15.24,1.69-.93-8.58-15.53v-16.17c0-2.87-2.08-5.25-4.83-5.71v-3.95h-1.93v3.95s0,0,0,0c-2.73.45-4.83,2.84-4.83,5.71v15.99l-10.62,16.59v-10.36h-3.86v16.39h0s-1.93,3.02-1.93,3.02v-19.41h-3.86v25.44h0s-4.72,7.39-4.72,7.39l-5.3-10.61-38.27.02v-14.51h-1.93v-4.83h-.97v4.83h-1.93v-4.83h-1.93v4.83h0v-.97h-1.93v-12.56h.97v-1.93h-.97v-.97h-.97v-.97h-.97v-.97h-.97v-2.9h-1.09v2.9h-.97v.97h-.97v.97h-.97v.97h-.97v1.93h.97v12.56h-1.93v-3.86h-1.93v4.83h-1.93v-4.83h-.97v4.83h-1.93v14.51l-38.27-.03-5.3,10.61-4.73-7.38v-25.44h-3.86v19.41l-1.93-3.02v-16.39h-3.86v10.35l-10.63-16.6v-15.97c0-2.87-2.09-5.26-4.83-5.71v-3.95h-1.93v3.95c-2.74.45-4.83,2.84-4.83,5.71v16.17l-8.57,15.53,1.69.93,8.42-15.25h8.67l12.01,18.77v5.04c0,.2.06.4.17.56l3.09,3.63c.18.27.61.14.61-.18v-3.02l1.93,3.02v3.67c0,.25.1.49.27.66l3.59,3.59v-1.89l4.65,7.26c.13.2.42.18.52-.03l6.05-12.11,49.15.03v-.03h.13v.03l49.15-.03,6.1,12.2c.08.17.32.18.42.02l4.7-7.34h0s0,2.03,0,2.03l3.73-3.88c.08-.08.13-.2.13-.31v-3.88l1.93-3.01h0s0,3.71,0,3.71c0,.12.16.17.22.07l3.64-4.46v-5.35l12.01-18.76ZM317.15,130.41h-2.9v-11.59h2.9v11.59ZM309.42,114.95c0-2.13,1.74-3.86,3.86-3.86s3.86,1.73,3.86,3.86v1.93h-7.73v-1.93ZM312.32,118.82v11.59h-2.9v-11.59h2.9ZM136.39,114.95c0-2.13,1.73-3.86,3.86-3.86s3.86,1.73,3.86,3.86v1.93h-7.73v-1.93ZM136.39,130.41v-11.59h2.9v11.59h-2.9ZM141.22,130.41v-11.59h2.9v11.59h-2.9ZM228.16,159.39v-13.52h2.05v13.55h-1.93v-.03h-.12ZM226.23,132.34h.97v11.59h-.97v-11.59ZM235.89,147.8v9.66h-2.9v-9.66h2.9ZM220.43,147.8v9.66h-2.9v-9.66h2.9ZM223.33,145.87h1.93v13.56h-1.93v-13.56Z"/>
        <polygon class="cls-2" points="298.8 135.24 298.8 131.38 295.03 131.38 292.52 131.38 292.52 133.95 288.75 133.95 288.75 131.38 286.24 131.38 286.24 133.95 286.24 135.24 295.03 135.24 298.8 135.24"/>
        <rect class="cls-2" x="243.74" y="152.63" width="6.76" height="6.76"/>
      </g>
      <path class="cls-2" d="M332.21,264.74c0,2.48-2.01,4.5-4.5,4.5h-127c-1.24,0-2.36-.51-3.18-1.32s-1.32-1.94-1.32-3.18c0-2.49,2.02-3.5,4.5-3.5h127c1.24,0,2.37.25,3.18.82.82.56,1.32,1.43,1.32,2.68Z"/>
      <path class="cls-2" d="M332.21,250.74c0,2.48-2.01,4.5-4.5,4.5h-98c-1.24,0-2.36-.51-3.18-1.32-.62-.62-1.04-1.42-1.21-2.32-.02-.08-.04-.17-.05-.26-.02-.09-.03-.19-.04-.28-.02-.1-.02-.21-.02-.32,0-2.49,2.02-4.5,4.5-4.5h98c.77,0,1.5.19,2.13.54.39.2.74.47,1.05.78.82.81,1.32,1.93,1.32,3.18Z"/>
      <path class="cls-2" d="M199.08,243.98l-71.39,24.68-2.47.85c-6.6,2.16-9.69-7.5-3.01-9.54l5.48-1.42,70.23-18.23c1.04-.3,2.12.32,2.39,1.36.26.98-.3,1.98-1.23,2.3Z"/>
      <path class="cls-2" d="M330.34,245.49c-.04.49-.22.93-.5,1.29-.57.74-1.53,1.14-2.5.93,0-.01-.58-.14-1.61-.35-1.24-.26-3.14-.65-5.46-1.12-12.44-2.53-36.92-7.46-36.92-7.68l27.04.05,15.34,3.61,2.35.55c1.38.13,2.39,1.35,2.26,2.72Z"/>
      <path class="cls-2" d="M170.2,238.61l-42.11,14.52c-.14.04-.27.07-.4.1-4.49.93-6.11-5.83-1.35-6.88l1.35-.32,30.82-7.42,5.7-1.37,5.99,1.37Z"/>
      <polygon class="cls-2" points="170.2 238.61 127.69 246.11 126.34 246.35 127.69 246.01 156.68 238.61 170.2 238.61"/>
      <path class="cls-2" d="M327.71,255.24l-1.98-.02-95.52-.98c-2.17,0-4.37-.78-4.89-2.64-.02-.08-.04-.17-.05-.26-.02-.09-.03-.19-.04-.28-.02-.1-.02-.21-.02-.32l100.52,4.41,1.98.09Z"/>
    </g>
  </g>
  <path class="cls-2" d="M326.69,105.78v174.85H127.69V105.78h199ZM336.69,95.78H117.69v194.85h219V95.78h0Z"/>
</svg>