<?xml version="1.0" encoding="UTF-8"?>
<svg id="Layer_2" data-name="Layer 2" xmlns="http://www.w3.org/2000/svg" xmlns:xlink="http://www.w3.org/1999/xlink" viewBox="0 0 937.09 215.98">
  <defs>
    <style>
      .cls-1 {
        fill: none;
      }

      .cls-2 {
        fill: #1e3a8a;
      }

      .cls-3 {
        clip-path: url(#clippath);
      }
    </style>
    <clipPath id="clippath">
      <rect class="cls-1" x="18.63" y="20.57" width="199" height="174.85"/>
    </clipPath>
  </defs>
  <path class="cls-2" d="M296.92,92.93l-21.71-60.21h13.31l16.03,45.71,16.03-45.71h13.31l-21.79,60.21h-15.18Z"/>
  <path class="cls-2" d="M339.49,92.93v-60.21h12.89v60.21h-12.89Z"/>
  <path class="cls-2" d="M387.4,94.29c-5.2,0-9.67-.88-13.4-2.63-3.73-1.75-6.64-4.21-8.74-7.38-2.09-3.17-3.28-6.9-3.56-11.19l12.98-.59c.34,2.37,1.03,4.4,2.08,6.06,1.05,1.67,2.46,2.93,4.24,3.77s3.97,1.27,6.57,1.27c2.15,0,3.97-.25,5.47-.76,1.5-.51,2.64-1.29,3.43-2.33.79-1.05,1.19-2.33,1.19-3.86,0-1.41-.34-2.64-1.02-3.69-.68-1.05-1.98-2.01-3.9-2.88-1.92-.88-4.75-1.74-8.48-2.59-5.14-1.19-9.29-2.52-12.42-3.99-3.14-1.47-5.41-3.32-6.83-5.55-1.41-2.23-2.12-5.05-2.12-8.44,0-3.62.89-6.78,2.67-9.5s4.37-4.83,7.76-6.36,7.43-2.29,12.13-2.29c4.97,0,9.19.88,12.64,2.63,3.45,1.75,6.15,4.16,8.1,7.21,1.95,3.05,3.12,6.56,3.52,10.52l-12.89.68c-.17-2.09-.73-3.91-1.7-5.47-.96-1.55-2.26-2.76-3.9-3.6-1.64-.85-3.62-1.27-5.94-1.27-2.94,0-5.24.65-6.91,1.95-1.67,1.3-2.5,3-2.5,5.09,0,1.47.38,2.7,1.14,3.69.76.99,2.04,1.85,3.82,2.59,1.78.74,4.31,1.44,7.59,2.12,5.6,1.13,10.02,2.56,13.27,4.28,3.25,1.73,5.55,3.77,6.91,6.15s2.04,5.09,2.04,8.14c0,3.73-.95,6.97-2.84,9.71-1.89,2.74-4.58,4.85-8.06,6.32s-7.59,2.2-12.34,2.2Z"/>
  <path class="cls-2" d="M419.97,92.93v-60.21h12.89v60.21h-12.89Z"/>
  <path class="cls-2" d="M455.67,92.93v-49.36h-17.98v-10.86h49.02v10.86h-18.06v49.36h-12.97Z"/>
  <polygon class="cls-2" points="320.5 172.4 320.5 183.27 279.88 183.27 279.88 123.05 292.77 123.05 292.77 172.4 320.5 172.4"/>
  <path class="cls-2" d="M352.72,184.62c-6.11,0-11.35-1.27-15.73-3.82-4.38-2.54-7.75-6.16-10.09-10.86-2.35-4.69-3.52-10.26-3.52-16.71s1.17-12.03,3.52-16.75c2.35-4.72,5.71-8.37,10.09-10.94,4.38-2.57,9.63-3.86,15.73-3.86s11.42,1.29,15.77,3.86c4.35,2.57,7.7,6.22,10.05,10.94,2.35,4.72,3.52,10.3,3.52,16.75s-1.17,12.01-3.52,16.71c-2.35,4.69-5.71,8.31-10.09,10.86-4.38,2.54-9.63,3.82-15.73,3.82ZM352.63,173.77c3.39,0,6.29-.81,8.69-2.42,2.4-1.61,4.24-3.94,5.51-7,1.27-3.05,1.91-6.76,1.91-11.11s-.64-8.07-1.91-11.15c-1.27-3.08-3.11-5.44-5.51-7.08-2.4-1.64-5.3-2.46-8.69-2.46s-6.19.82-8.56,2.46c-2.37,1.64-4.2,4-5.47,7.08-1.27,3.08-1.91,6.8-1.91,11.15s.64,8.06,1.91,11.11c1.27,3.05,3.11,5.39,5.51,7,2.4,1.61,5.24,2.42,8.52,2.42Z"/>
  <path class="cls-2" d="M390.54,183.26v-60.21h12.89v60.21h-12.89Z"/>
  <path class="cls-2" d="M414.8,183.26v-60.21h26.37c4.41,0,8.24.74,11.49,2.2,3.25,1.47,5.75,3.55,7.51,6.23,1.75,2.69,2.63,5.87,2.63,9.54,0,2.77-.58,5.23-1.74,7.38-1.16,2.15-2.74,3.9-4.75,5.26-2.01,1.36-4.31,2.2-6.91,2.54l-.25-.76c4.01,0,7.07.86,9.16,2.59,2.09,1.73,3.28,4.37,3.56,7.93l1.53,17.3h-13.15l-1.1-15.27c-.17-2.32-.89-4.03-2.16-5.13-1.27-1.1-3.43-1.65-6.49-1.65h-12.81v22.05h-12.89ZM427.69,150.44h12.04c3.11,0,5.53-.72,7.25-2.16,1.72-1.44,2.59-3.49,2.59-6.15s-.88-4.76-2.63-6.15c-1.75-1.39-4.3-2.08-7.63-2.08h-11.62v16.54Z"/>
  <path class="cls-2" d="M473.9,183.26v-60.21h41.89v10.86h-29v13.82h27.99v10.69h-27.99v13.99h29.68v10.86h-42.57Z"/>
  <path class="cls-2" d="M581.1,181.91c-5.48,0-10.36-1.24-14.63-3.73-4.27-2.49-7.6-6.08-10.01-10.77-2.4-4.69-3.6-10.32-3.6-16.88s1.16-11.94,3.48-16.66c2.32-4.72,5.62-8.38,9.92-10.98,4.3-2.6,9.33-3.9,15.1-3.9,7.86,0,13.98,1.94,18.36,5.81,4.38,3.87,7.19,9.4,8.44,16.58l-13.4.51c-.68-3.79-2.15-6.74-4.41-8.86-2.26-2.12-5.26-3.18-8.99-3.18-3.22,0-5.97.85-8.23,2.54-2.26,1.7-3.99,4.1-5.17,7.21-1.19,3.11-1.78,6.76-1.78,10.94s.61,7.9,1.82,10.98c1.21,3.08,2.95,5.44,5.21,7.08,2.26,1.64,4.95,2.46,8.06,2.46,4.07,0,7.22-1.14,9.46-3.43,2.23-2.29,3.63-5.47,4.2-9.54l13.48.51c-.79,4.92-2.35,9.1-4.66,12.55-2.32,3.45-5.36,6.11-9.12,7.97-3.76,1.87-8.27,2.8-13.53,2.8Z"/>
  <path class="cls-2" d="M610.7,180.55l21.71-60.21h15.26l21.71,60.21h-13.4l-4.41-12.81h-23.15l-4.41,12.81h-13.31ZM632.07,157.14h15.94l-7.97-23.24-7.97,23.24Z"/>
  <path class="cls-2" d="M697.54,181.91c-5.2,0-9.67-.88-13.4-2.63-3.73-1.75-6.64-4.21-8.74-7.38-2.09-3.17-3.28-6.9-3.56-11.2l12.98-.59c.34,2.38,1.03,4.4,2.08,6.06,1.05,1.67,2.46,2.93,4.24,3.77s3.97,1.27,6.57,1.27c2.15,0,3.97-.25,5.47-.76,1.5-.51,2.64-1.29,3.43-2.33.79-1.04,1.19-2.33,1.19-3.86,0-1.41-.34-2.64-1.02-3.69-.68-1.05-1.98-2.01-3.9-2.88-1.92-.87-4.75-1.74-8.48-2.59-5.14-1.19-9.29-2.52-12.42-3.99-3.14-1.47-5.41-3.32-6.83-5.55-1.41-2.23-2.12-5.05-2.12-8.44,0-3.62.89-6.78,2.67-9.5s4.37-4.83,7.76-6.36c3.39-1.53,7.43-2.29,12.13-2.29,4.97,0,9.19.88,12.64,2.63,3.45,1.75,6.15,4.16,8.1,7.21,1.95,3.05,3.12,6.56,3.52,10.52l-12.89.68c-.17-2.09-.73-3.91-1.7-5.47-.96-1.55-2.26-2.76-3.9-3.6-1.64-.85-3.62-1.27-5.94-1.27-2.94,0-5.24.65-6.91,1.95-1.67,1.3-2.5,3-2.5,5.09,0,1.47.38,2.7,1.14,3.69.76.99,2.04,1.85,3.82,2.59,1.78.73,4.31,1.44,7.59,2.12,5.6,1.13,10.02,2.56,13.27,4.28,3.25,1.73,5.55,3.77,6.91,6.15,1.36,2.37,2.04,5.09,2.04,8.14,0,3.73-.95,6.97-2.84,9.71-1.89,2.74-4.58,4.85-8.06,6.32s-7.59,2.2-12.34,2.2Z"/>
  <path class="cls-2" d="M740.71,180.55v-49.36h-17.98v-10.86h49.02v10.86h-18.07v49.36h-12.97Z"/>
  <polygon class="cls-2" points="817.12 169.69 817.12 180.56 776.5 180.56 776.5 120.34 789.39 120.34 789.39 169.69 817.12 169.69"/>
  <path class="cls-2" d="M823.73,180.55v-60.21h41.89v10.86h-29v13.82h27.99v10.69h-27.99v13.99h29.68v10.86h-42.57Z"/>
  <path class="cls-2" d="M900.31,181.91c-5.2,0-9.67-.88-13.4-2.63-3.73-1.75-6.64-4.21-8.74-7.38-2.09-3.17-3.28-6.9-3.56-11.2l12.98-.59c.34,2.38,1.03,4.4,2.08,6.06,1.05,1.67,2.46,2.93,4.24,3.77,1.78.85,3.97,1.27,6.57,1.27,2.15,0,3.97-.25,5.47-.76,1.5-.51,2.64-1.29,3.43-2.33.79-1.04,1.19-2.33,1.19-3.86,0-1.41-.34-2.64-1.02-3.69-.68-1.05-1.98-2.01-3.9-2.88-1.92-.87-4.75-1.74-8.48-2.59-5.15-1.19-9.29-2.52-12.42-3.99-3.14-1.47-5.41-3.32-6.83-5.55-1.41-2.23-2.12-5.05-2.12-8.44,0-3.62.89-6.78,2.67-9.5,1.78-2.71,4.37-4.83,7.76-6.36,3.39-1.53,7.43-2.29,12.13-2.29,4.97,0,9.19.88,12.64,2.63,3.45,1.75,6.15,4.16,8.1,7.21s3.12,6.56,3.52,10.52l-12.89.68c-.17-2.09-.74-3.91-1.7-5.47-.96-1.55-2.26-2.76-3.9-3.6-1.64-.85-3.62-1.27-5.94-1.27-2.94,0-5.25.65-6.91,1.95-1.67,1.3-2.5,3-2.5,5.09,0,1.47.38,2.7,1.14,3.69.76.99,2.03,1.85,3.82,2.59,1.78.73,4.31,1.44,7.59,2.12,5.6,1.13,10.02,2.56,13.27,4.28,3.25,1.73,5.55,3.77,6.91,6.15,1.36,2.37,2.04,5.09,2.04,8.14,0,3.73-.95,6.97-2.84,9.71-1.9,2.74-4.58,4.85-8.06,6.32-3.48,1.47-7.59,2.2-12.34,2.2Z"/>
  <g class="cls-3">
    <g>
      <g>
        <path class="cls-2" d="M17.66,106.06h14.49v-17.39h-14.49v17.39ZM22.49,90.6h6.76v11.59h-6.76v-11.59Z"/>
        <rect class="cls-2" x="34.08" y="88.67" width="11.59" height="17.39"/>
        <path class="cls-2" d="M47.61,106.06h13.52v-17.39h-13.52v17.39ZM53.4,91.57h3.86v10.63h-3.86v-10.63Z"/>
        <path class="cls-2" d="M17.66,127.31h14.49v-19.32h-14.49v19.32ZM22.49,110.89h6.76v13.52h-6.76v-13.52Z"/>
        <rect class="cls-2" x="34.08" y="107.99" width="11.59" height="19.32"/>
        <path class="cls-2" d="M47.61,127.31h13.52v-19.32h-13.52v19.32ZM53.4,110.89h3.86v11.59h-3.86v-11.59Z"/>
        <rect class="cls-2" x="17.66" y="129.24" width="14.49" height="24.15"/>
        <rect class="cls-2" x="34.08" y="129.24" width="11.59" height="24.15"/>
        <path class="cls-2" d="M47.61,153.39h13.52v-24.15h-13.52v24.15ZM54.37,135.04h2.9v9.66h-2.9v-9.66Z"/>
        <path class="cls-2" d="M35.54,70.32h-1.93l-.96-3.86h-2.9l-.97,3.86h-1.95l.02-2.9h-1.93v19.32h12.56v-19.32h-1.93v2.9ZM34.58,83.84h-6.76v-10.63h6.76v10.63Z"/>
        <polygon class="cls-2" points="93.01 90.6 93.01 80.94 91.07 80.94 89.15 79.01 87.21 79.01 85.27 80.94 83.35 80.94 83.35 90.6 86.25 90.6 86.25 82.87 90.11 82.87 90.11 90.6 93.01 90.6"/>
        <path class="cls-2" d="M122.96,90.6v-9.66h-1.94l-1.92-1.93h-2.78l-1.92,1.93h-1.94v9.66h10.51ZM120.06,88.67h-4.83v-5.8h4.83v5.8Z"/>
        <polygon class="cls-2" points="58.23 50.03 58.23 48.74 58.23 46.17 55.72 46.17 55.72 48.74 51.96 48.74 51.96 46.17 49.44 46.17 45.68 46.17 45.68 50.03 49.44 50.03 58.23 50.03"/>
        <rect class="cls-2" x="93.98" y="67.42" width="6.76" height="6.76"/>
        <path class="cls-2" d="M203.25,106.06h14.49v-17.39h-14.49v17.39ZM206.04,90.6h6.76v11.59h-6.76v-11.59Z"/>
        <rect class="cls-2" x="189.73" y="88.67" width="11.59" height="17.39"/>
        <path class="cls-2" d="M174.27,106.06h13.52v-17.39h-13.52v17.39ZM178.02,91.57h3.86v10.63h-3.86v-10.63Z"/>
        <path class="cls-2" d="M217.74,107.99h-14.49v19.32h14.49v-19.32ZM212.8,124.41h-6.76v-13.52h6.76v13.52Z"/>
        <rect class="cls-2" x="189.73" y="107.99" width="11.59" height="19.32"/>
        <path class="cls-2" d="M174.27,127.31h13.52v-19.32h-13.52v19.32ZM178.02,110.89h3.86v11.59h-3.86v-11.59Z"/>
        <rect class="cls-2" x="203.26" y="129.24" width="14.49" height="24.15"/>
        <rect class="cls-2" x="189.73" y="129.24" width="11.59" height="24.15"/>
        <path class="cls-2" d="M174.27,153.39h13.52v-24.15h-13.52v24.15ZM178.02,135.04h2.9v9.66h-2.9v-9.66Z"/>
        <path class="cls-2" d="M117.28,92.53h-54.21v15.46h109.28v-15.46h-55.06ZM75.62,106.06h-6.76v-10.63h6.76v10.63ZM92.04,106.06h-7.73v-10.63h7.73v10.63ZM107.5,106.06h-6.76v-10.63h6.76v10.63ZM159.67,95.43h6.76v10.63h-6.76v-10.63ZM143.24,95.43h7.73v10.63h-7.73v-10.63ZM127.79,95.43h6.76v10.63h-6.76v-10.63ZM121.03,95.43v10.63h-6.76v-10.63h6.76Z"/>
        <path class="cls-2" d="M117.28,109.92h-54.21v19.32h109.28v-19.32h-55.06ZM75.62,126.35h-6.76v-13.52h6.76v13.52ZM92.04,126.35h-7.73v-13.52h7.73v13.52ZM107.5,127.31h-6.76v-14.49h6.76v14.49ZM159.67,112.82h6.76v13.52h-6.76v-13.52ZM143.24,112.82h7.73v13.52h-7.73v-13.52ZM127.79,112.82h6.76v14.49h-6.76v-14.49ZM121.03,112.82v14.49h-6.76v-14.49h6.76Z"/>
        <path class="cls-2" d="M117.28,131.18h-54.21v19.32h16.42v-7.25c0-4.53,3.68-8.21,8.21-8.21s8.21,3.68,8.21,8.21v7.25h12.56v-7.25c0-4.53,4.61-8.26,9.18-8.26s9.18,3.73,9.18,8.26v7.25h12.56v-7.25c0-4.53,3.68-8.21,8.21-8.21s8.21,3.68,8.21,8.21v7.25h16.54v-19.32h-55.06Z"/>
        <path class="cls-2" d="M205.7,66.45h-2.9l-.95,3.86h-1.94v-2.9h-1.94v19.32h12.56v-19.32h-1.93l.02,2.9h-1.95l-.97-3.86ZM207.52,83.84h-6.76v-10.63h6.76v10.63Z"/>
        <polygon class="cls-2" points="152.05 90.6 152.05 80.94 150.13 80.94 148.19 79.01 146.26 79.01 144.34 80.94 142.39 80.94 142.39 90.6 145.18 90.6 145.18 82.87 149.04 82.87 149.04 90.6 152.05 90.6"/>
        <path class="cls-2" d="M199.81,47.13h8.67l8.42,15.24,1.69-.93-8.58-15.53v-16.17c0-2.87-2.08-5.25-4.83-5.71v-3.95h-1.93v3.95s0,0,0,0c-2.73.45-4.83,2.84-4.83,5.71v15.99l-10.62,16.59v-10.36h-3.86v16.39h0s-1.93,3.02-1.93,3.02v-19.41h-3.86v25.44h0s-4.72,7.39-4.72,7.39l-5.3-10.61-38.27.02v-14.51h-1.93v-4.83h-.97v4.83h-1.93v-4.83h-1.93v4.83h0v-.97h-1.93v-12.56h.97v-1.93h-.97v-.97h-.97v-.97h-.97v-.97h-.97v-2.9h-1.09v2.9h-.97v.97h-.97v.97h-.97v.97h-.97v1.93h.97v12.56h-1.93v-3.86h-1.93v4.83h-1.93v-4.83h-.97v4.83h-1.93v14.51l-38.27-.03-5.3,10.61-4.73-7.38v-25.44h-3.86v19.41l-1.93-3.02v-16.39h-3.86v10.35l-10.63-16.6v-15.97c0-2.87-2.09-5.26-4.83-5.71v-3.95h-1.93v3.95c-2.74.45-4.83,2.84-4.83,5.71v16.17l-8.57,15.53,1.69.93,8.42-15.25h8.67l12.01,18.77v5.04c0,.2.06.4.17.56l3.09,3.63c.18.27.61.14.61-.18v-3.02l1.93,3.02v3.67c0,.25.1.49.27.66l3.59,3.59v-1.89l4.65,7.26c.13.2.42.18.52-.03l6.05-12.11,49.15.03v-.03h.13v.03l49.15-.03,6.1,12.2c.08.17.32.18.42.02l4.7-7.34h0s0,2.03,0,2.03l3.73-3.88c.08-.08.13-.2.13-.31v-3.88l1.93-3.01h0s0,3.71,0,3.71c0,.12.16.17.22.07l3.64-4.46v-5.35l12.01-18.76ZM208.08,45.2h-2.9v-11.59h2.9v11.59ZM200.36,29.74c0-2.13,1.74-3.86,3.86-3.86s3.86,1.73,3.86,3.86v1.93h-7.73v-1.93ZM203.25,33.61v11.59h-2.9v-11.59h2.9ZM27.32,29.74c0-2.13,1.73-3.86,3.86-3.86s3.86,1.73,3.86,3.86v1.93h-7.73v-1.93ZM27.32,45.2v-11.59h2.9v11.59h-2.9ZM32.15,45.2v-11.59h2.9v11.59h-2.9ZM119.09,74.18v-13.52h2.05v13.55h-1.93v-.03h-.12ZM117.16,47.13h.97v11.59h-.97v-11.59ZM126.82,62.59v9.66h-2.9v-9.66h2.9ZM111.37,62.59v9.66h-2.9v-9.66h2.9ZM114.26,60.66h1.93v13.56h-1.93v-13.56Z"/>
        <polygon class="cls-2" points="189.73 50.03 189.73 46.17 185.97 46.17 183.45 46.17 183.45 48.74 179.69 48.74 179.69 46.17 177.17 46.17 177.17 48.74 177.17 50.03 185.97 50.03 189.73 50.03"/>
        <rect class="cls-2" x="134.67" y="67.42" width="6.76" height="6.76"/>
      </g>
      <path class="cls-2" d="M223.14,179.53c0,2.48-2.01,4.5-4.5,4.5h-127c-1.24,0-2.36-.51-3.18-1.32s-1.32-1.94-1.32-3.18c0-2.49,2.02-3.5,4.5-3.5h127c1.24,0,2.37.25,3.18.82.82.56,1.32,1.43,1.32,2.68Z"/>
      <path class="cls-2" d="M223.14,165.53c0,2.48-2.01,4.5-4.5,4.5h-98c-1.24,0-2.36-.51-3.18-1.32-.62-.62-1.04-1.42-1.21-2.32-.02-.08-.04-.17-.05-.26-.02-.09-.03-.19-.04-.28-.02-.1-.02-.21-.02-.32,0-2.49,2.02-4.5,4.5-4.5h98c.77,0,1.5.19,2.13.54.39.2.74.47,1.05.78.82.81,1.32,1.93,1.32,3.18Z"/>
      <path class="cls-2" d="M90.01,158.77l-71.39,24.68-2.47.85c-6.6,2.16-9.69-7.5-3.01-9.54l5.48-1.42,70.23-18.23c1.04-.3,2.12.32,2.39,1.36.26.98-.3,1.98-1.23,2.3Z"/>
      <path class="cls-2" d="M221.27,160.28c-.04.49-.22.93-.5,1.29-.57.74-1.53,1.14-2.5.93,0-.01-.58-.14-1.61-.35-1.24-.26-3.14-.65-5.46-1.12-12.44-2.53-36.92-7.46-36.92-7.68l27.04.05,15.34,3.61,2.35.55c1.38.13,2.39,1.35,2.26,2.72Z"/>
      <path class="cls-2" d="M61.13,153.4l-42.11,14.52c-.14.04-.27.07-.4.1-4.49.93-6.11-5.83-1.35-6.88l1.35-.32,30.82-7.42,5.7-1.37,5.99,1.37Z"/>
      <polygon class="cls-2" points="61.13 153.4 18.62 160.9 17.27 161.14 18.62 160.8 47.61 153.4 61.13 153.4"/>
    </g>
  </g>
  <path class="cls-2" d="M217.63,20.57v174.85H18.63V20.57h199ZM227.63,10.57H8.63v194.85h219V10.57h0Z"/>
</svg>